<svg xmlns="http://www.w3.org/2000/svg" width="1280" height="760" viewBox="0 0 1280 760" role="img" aria-labelledby="title desc">
<defs>
<linearGradient id="bg" x1="0" y1="0" x2="0" y2="1">
<stop offset="0%" stop-color="#f8fafc" />
<stop offset="100%" stop-color="#eef2ff" />
</linearGradient>
</defs>
<title>Compile Time Median by Benchmark</title>
<desc>Native languages only. Pluto includes frontend plus LLVM opt, llc, and link.</desc>
<rect width="1280" height="760" fill="url(#bg)" />
<text x="110" y="52" fill="#0f172a" font-size="28" font-weight="700" font-family="ui-sans-serif, system-ui, -apple-system, BlinkMacSystemFont, sans-serif">Compile Time Median by Benchmark</text>
<text x="110" y="80" fill="#475569" font-size="15" font-family="ui-sans-serif, system-ui, -apple-system, BlinkMacSystemFont, sans-serif">Native languages only. Pluto includes frontend plus LLVM opt, llc, and link.</text>
<rect x="110" y="110" width="910" height="555" rx="18" fill="#ffffff" fill-opacity="0.82" stroke="#cbd5e1" />
<line x1="110" y1="665.00" x2="1020" y2="665.00" stroke="#e2e8f0" stroke-width="1" />
<text x="94" y="670.00" text-anchor="end" fill="#475569" font-size="13" font-family="ui-sans-serif, system-ui, -apple-system, BlinkMacSystemFont, sans-serif">0.00 ms</text>
<line x1="110" y1="554.00" x2="1020" y2="554.00" stroke="#e2e8f0" stroke-width="1" />
<text x="94" y="559.00" text-anchor="end" fill="#475569" font-size="13" font-family="ui-sans-serif, system-ui, -apple-system, BlinkMacSystemFont, sans-serif">100 ms</text>
<line x1="110" y1="443.00" x2="1020" y2="443.00" stroke="#e2e8f0" stroke-width="1" />
<text x="94" y="448.00" text-anchor="end" fill="#475569" font-size="13" font-family="ui-sans-serif, system-ui, -apple-system, BlinkMacSystemFont, sans-serif">200 ms</text>
<line x1="110" y1="332.00" x2="1020" y2="332.00" stroke="#e2e8f0" stroke-width="1" />
<text x="94" y="337.00" text-anchor="end" fill="#475569" font-size="13" font-family="ui-sans-serif, system-ui, -apple-system, BlinkMacSystemFont, sans-serif">300 ms</text>
<line x1="110" y1="221.00" x2="1020" y2="221.00" stroke="#e2e8f0" stroke-width="1" />
<text x="94" y="226.00" text-anchor="end" fill="#475569" font-size="13" font-family="ui-sans-serif, system-ui, -apple-system, BlinkMacSystemFont, sans-serif">400 ms</text>
<line x1="110" y1="110.00" x2="1020" y2="110.00" stroke="#e2e8f0" stroke-width="1" />
<text x="94" y="115.00" text-anchor="end" fill="#475569" font-size="13" font-family="ui-sans-serif, system-ui, -apple-system, BlinkMacSystemFont, sans-serif">500 ms</text>
<line x1="110.00" y1="110" x2="110.00" y2="665" stroke="#f1f5f9" stroke-width="1" />
<text x="110.00" y="699" text-anchor="middle" fill="#0f172a" font-size="14" font-family="ui-sans-serif, system-ui, -apple-system, BlinkMacSystemFont, sans-serif">Sum</text>
<line x1="413.33" y1="110" x2="413.33" y2="665" stroke="#f1f5f9" stroke-width="1" />
<text x="413.33" y="699" text-anchor="middle" fill="#0f172a" font-size="14" font-family="ui-sans-serif, system-ui, -apple-system, BlinkMacSystemFont, sans-serif">Fib</text>
<line x1="716.67" y1="110" x2="716.67" y2="665" stroke="#f1f5f9" stroke-width="1" />
<text x="716.67" y="699" text-anchor="middle" fill="#0f172a" font-size="14" font-family="ui-sans-serif, system-ui, -apple-system, BlinkMacSystemFont, sans-serif">Fib Tail</text>
<line x1="1020.00" y1="110" x2="1020.00" y2="665" stroke="#f1f5f9" stroke-width="1" />
<text x="1020.00" y="699" text-anchor="middle" fill="#0f172a" font-size="14" font-family="ui-sans-serif, system-ui, -apple-system, BlinkMacSystemFont, sans-serif">Harmonic</text>
<text x="565.00" y="732" text-anchor="middle" fill="#64748b" font-size="13" font-family="ui-sans-serif, system-ui, -apple-system, BlinkMacSystemFont, sans-serif">Lower is better</text>
<path d="M 110.00 558.58 L 413.33 559.48 L 716.67 556.36 L 1020.00 559.86" fill="none" stroke="#c2410c" stroke-width="4.0" stroke-linecap="round" stroke-linejoin="round" opacity="1.0" />
<circle cx="110.00" cy="558.58" r="5" fill="#c2410c" stroke="#ffffff" stroke-width="1.5" />
<circle cx="413.33" cy="559.48" r="5" fill="#c2410c" stroke="#ffffff" stroke-width="1.5" />
<circle cx="716.67" cy="556.36" r="5" fill="#c2410c" stroke="#ffffff" stroke-width="1.5" />
<circle cx="1020.00" cy="559.86" r="5" fill="#c2410c" stroke="#ffffff" stroke-width="1.5" />
<path d="M 110.00 592.18 L 413.33 593.37 L 716.67 592.55 L 1020.00 600.24" fill="none" stroke="#2563eb" stroke-width="2.2" stroke-linecap="round" stroke-linejoin="round" opacity="0.88" />
<circle cx="110.00" cy="592.18" r="3.5" fill="#2563eb" stroke="#ffffff" stroke-width="1.5" />
<circle cx="413.33" cy="593.37" r="3.5" fill="#2563eb" stroke="#ffffff" stroke-width="1.5" />
<circle cx="716.67" cy="592.55" r="3.5" fill="#2563eb" stroke="#ffffff" stroke-width="1.5" />
<circle cx="1020.00" cy="600.24" r="3.5" fill="#2563eb" stroke="#ffffff" stroke-width="1.5" />
<path d="M 110.00 285.26 L 413.33 289.32 L 716.67 280.77 L 1020.00 328.85" fill="none" stroke="#16a34a" stroke-width="2.2" stroke-linecap="round" stroke-linejoin="round" opacity="0.88" />
<circle cx="110.00" cy="285.26" r="3.5" fill="#16a34a" stroke="#ffffff" stroke-width="1.5" />
<circle cx="413.33" cy="289.32" r="3.5" fill="#16a34a" stroke="#ffffff" stroke-width="1.5" />
<circle cx="716.67" cy="280.77" r="3.5" fill="#16a34a" stroke="#ffffff" stroke-width="1.5" />
<circle cx="1020.00" cy="328.85" r="3.5" fill="#16a34a" stroke="#ffffff" stroke-width="1.5" />
<path d="M 110.00 429.27 L 413.33 447.13 L 716.67 421.58 L 1020.00 336.39" fill="none" stroke="#dc2626" stroke-width="2.2" stroke-linecap="round" stroke-linejoin="round" opacity="0.88" />
<circle cx="110.00" cy="429.27" r="3.5" fill="#dc2626" stroke="#ffffff" stroke-width="1.5" />
<circle cx="413.33" cy="447.13" r="3.5" fill="#dc2626" stroke="#ffffff" stroke-width="1.5" />
<circle cx="716.67" cy="421.58" r="3.5" fill="#dc2626" stroke="#ffffff" stroke-width="1.5" />
<circle cx="1020.00" cy="336.39" r="3.5" fill="#dc2626" stroke="#ffffff" stroke-width="1.5" />
<path d="M 110.00 525.86 L 413.33 524.78 L 716.67 521.57 L 1020.00 528.74" fill="none" stroke="#0891b2" stroke-width="2.2" stroke-linecap="round" stroke-linejoin="round" opacity="0.88" />
<circle cx="110.00" cy="525.86" r="3.5" fill="#0891b2" stroke="#ffffff" stroke-width="1.5" />
<circle cx="413.33" cy="524.78" r="3.5" fill="#0891b2" stroke="#ffffff" stroke-width="1.5" />
<circle cx="716.67" cy="521.57" r="3.5" fill="#0891b2" stroke="#ffffff" stroke-width="1.5" />
<circle cx="1020.00" cy="528.74" r="3.5" fill="#0891b2" stroke="#ffffff" stroke-width="1.5" />
<path d="M 110.00 549.69 L 413.33 549.60 L 716.67 544.57 L 1020.00 550.16" fill="none" stroke="#6d28d9" stroke-width="2.2" stroke-linecap="round" stroke-linejoin="round" opacity="0.88" />
<circle cx="110.00" cy="549.69" r="3.5" fill="#6d28d9" stroke="#ffffff" stroke-width="1.5" />
<circle cx="413.33" cy="549.60" r="3.5" fill="#6d28d9" stroke="#ffffff" stroke-width="1.5" />
<circle cx="716.67" cy="544.57" r="3.5" fill="#6d28d9" stroke="#ffffff" stroke-width="1.5" />
<circle cx="1020.00" cy="550.16" r="3.5" fill="#6d28d9" stroke="#ffffff" stroke-width="1.5" />
<path d="M 110.00 428.98 L 413.33 430.49 L 716.67 423.66 L 1020.00 248.73" fill="none" stroke="#ca8a04" stroke-width="2.2" stroke-linecap="round" stroke-linejoin="round" opacity="0.88" />
<circle cx="110.00" cy="428.98" r="3.5" fill="#ca8a04" stroke="#ffffff" stroke-width="1.5" />
<circle cx="413.33" cy="430.49" r="3.5" fill="#ca8a04" stroke="#ffffff" stroke-width="1.5" />
<circle cx="716.67" cy="423.66" r="3.5" fill="#ca8a04" stroke="#ffffff" stroke-width="1.5" />
<circle cx="1020.00" cy="248.73" r="3.5" fill="#ca8a04" stroke="#ffffff" stroke-width="1.5" />
<text x="1046" y="128" fill="#0f172a" font-size="16" font-weight="700" font-family="ui-sans-serif, system-ui, -apple-system, BlinkMacSystemFont, sans-serif">Languages</text>
<line x1="1046" y1="158" x2="1072" y2="158" stroke="#c2410c" stroke-width="4" stroke-linecap="round" />
<text x="1082" y="162" fill="#0f172a" font-size="14" font-weight="700" font-family="ui-sans-serif, system-ui, -apple-system, BlinkMacSystemFont, sans-serif">Pluto (baseline)</text>
<line x1="1046" y1="186" x2="1072" y2="186" stroke="#2563eb" stroke-width="4" stroke-linecap="round" />
<text x="1082" y="190" fill="#0f172a" font-size="14" font-weight="500" font-family="ui-sans-serif, system-ui, -apple-system, BlinkMacSystemFont, sans-serif">C</text>
<line x1="1046" y1="214" x2="1072" y2="214" stroke="#16a34a" stroke-width="4" stroke-linecap="round" />
<text x="1082" y="218" fill="#0f172a" font-size="14" font-weight="500" font-family="ui-sans-serif, system-ui, -apple-system, BlinkMacSystemFont, sans-serif">C++</text>
<line x1="1046" y1="242" x2="1072" y2="242" stroke="#dc2626" stroke-width="4" stroke-linecap="round" />
<text x="1082" y="246" fill="#0f172a" font-size="14" font-weight="500" font-family="ui-sans-serif, system-ui, -apple-system, BlinkMacSystemFont, sans-serif">Swift</text>
<line x1="1046" y1="270" x2="1072" y2="270" stroke="#0891b2" stroke-width="4" stroke-linecap="round" />
<text x="1082" y="274" fill="#0f172a" font-size="14" font-weight="500" font-family="ui-sans-serif, system-ui, -apple-system, BlinkMacSystemFont, sans-serif">Go</text>
<line x1="1046" y1="298" x2="1072" y2="298" stroke="#6d28d9" stroke-width="4" stroke-linecap="round" />
<text x="1082" y="302" fill="#0f172a" font-size="14" font-weight="500" font-family="ui-sans-serif, system-ui, -apple-system, BlinkMacSystemFont, sans-serif">Rust</text>
<line x1="1046" y1="326" x2="1072" y2="326" stroke="#ca8a04" stroke-width="4" stroke-linecap="round" />
<text x="1082" y="330" fill="#0f172a" font-size="14" font-weight="500" font-family="ui-sans-serif, system-ui, -apple-system, BlinkMacSystemFont, sans-serif">Zig</text>
</svg>
