<svg xmlns="http://www.w3.org/2000/svg" width="1280" height="760" viewBox="0 0 1280 760" role="img" aria-labelledby="title desc">
<defs>
<linearGradient id="bg" x1="0" y1="0" x2="0" y2="1">
<stop offset="0%" stop-color="#f8fafc" />
<stop offset="100%" stop-color="#eef2ff" />
</linearGradient>
</defs>
<title>Run Time Median by Benchmark</title>
<desc>Log scale. All languages are timed as fresh processes. Lower is better.</desc>
<rect width="1280" height="760" fill="url(#bg)" />
<text x="110" y="52" fill="#0f172a" font-size="28" font-weight="700" font-family="ui-sans-serif, system-ui, -apple-system, BlinkMacSystemFont, sans-serif">Run Time Median by Benchmark</text>
<text x="110" y="80" fill="#475569" font-size="15" font-family="ui-sans-serif, system-ui, -apple-system, BlinkMacSystemFont, sans-serif">Log scale. All languages are timed as fresh processes. Lower is better.</text>
<rect x="110" y="110" width="910" height="555" rx="18" fill="#ffffff" fill-opacity="0.82" stroke="#cbd5e1" />
<line x1="110" y1="665.00" x2="1020" y2="665.00" stroke="#e2e8f0" stroke-width="1" />
<text x="94" y="670.00" text-anchor="end" fill="#475569" font-size="13" font-family="ui-sans-serif, system-ui, -apple-system, BlinkMacSystemFont, sans-serif">1.00 ms</text>
<line x1="110" y1="609.31" x2="1020" y2="609.31" stroke="#e2e8f0" stroke-width="1" />
<text x="94" y="614.31" text-anchor="end" fill="#475569" font-size="13" font-family="ui-sans-serif, system-ui, -apple-system, BlinkMacSystemFont, sans-serif">2.00 ms</text>
<line x1="110" y1="535.69" x2="1020" y2="535.69" stroke="#e2e8f0" stroke-width="1" />
<text x="94" y="540.69" text-anchor="end" fill="#475569" font-size="13" font-family="ui-sans-serif, system-ui, -apple-system, BlinkMacSystemFont, sans-serif">5.00 ms</text>
<line x1="110" y1="480.00" x2="1020" y2="480.00" stroke="#e2e8f0" stroke-width="1" />
<text x="94" y="485.00" text-anchor="end" fill="#475569" font-size="13" font-family="ui-sans-serif, system-ui, -apple-system, BlinkMacSystemFont, sans-serif">10.0 ms</text>
<line x1="110" y1="424.31" x2="1020" y2="424.31" stroke="#e2e8f0" stroke-width="1" />
<text x="94" y="429.31" text-anchor="end" fill="#475569" font-size="13" font-family="ui-sans-serif, system-ui, -apple-system, BlinkMacSystemFont, sans-serif">20.0 ms</text>
<line x1="110" y1="350.69" x2="1020" y2="350.69" stroke="#e2e8f0" stroke-width="1" />
<text x="94" y="355.69" text-anchor="end" fill="#475569" font-size="13" font-family="ui-sans-serif, system-ui, -apple-system, BlinkMacSystemFont, sans-serif">50.0 ms</text>
<line x1="110" y1="295.00" x2="1020" y2="295.00" stroke="#e2e8f0" stroke-width="1" />
<text x="94" y="300.00" text-anchor="end" fill="#475569" font-size="13" font-family="ui-sans-serif, system-ui, -apple-system, BlinkMacSystemFont, sans-serif">100 ms</text>
<line x1="110" y1="239.31" x2="1020" y2="239.31" stroke="#e2e8f0" stroke-width="1" />
<text x="94" y="244.31" text-anchor="end" fill="#475569" font-size="13" font-family="ui-sans-serif, system-ui, -apple-system, BlinkMacSystemFont, sans-serif">200 ms</text>
<line x1="110" y1="165.69" x2="1020" y2="165.69" stroke="#e2e8f0" stroke-width="1" />
<text x="94" y="170.69" text-anchor="end" fill="#475569" font-size="13" font-family="ui-sans-serif, system-ui, -apple-system, BlinkMacSystemFont, sans-serif">500 ms</text>
<line x1="110" y1="110.00" x2="1020" y2="110.00" stroke="#e2e8f0" stroke-width="1" />
<text x="94" y="115.00" text-anchor="end" fill="#475569" font-size="13" font-family="ui-sans-serif, system-ui, -apple-system, BlinkMacSystemFont, sans-serif">1000 ms</text>
<line x1="110.00" y1="110" x2="110.00" y2="665" stroke="#f1f5f9" stroke-width="1" />
<text x="110.00" y="699" text-anchor="middle" fill="#0f172a" font-size="14" font-family="ui-sans-serif, system-ui, -apple-system, BlinkMacSystemFont, sans-serif">Sum</text>
<line x1="413.33" y1="110" x2="413.33" y2="665" stroke="#f1f5f9" stroke-width="1" />
<text x="413.33" y="699" text-anchor="middle" fill="#0f172a" font-size="14" font-family="ui-sans-serif, system-ui, -apple-system, BlinkMacSystemFont, sans-serif">Fib</text>
<line x1="716.67" y1="110" x2="716.67" y2="665" stroke="#f1f5f9" stroke-width="1" />
<text x="716.67" y="699" text-anchor="middle" fill="#0f172a" font-size="14" font-family="ui-sans-serif, system-ui, -apple-system, BlinkMacSystemFont, sans-serif">Fib Tail</text>
<line x1="1020.00" y1="110" x2="1020.00" y2="665" stroke="#f1f5f9" stroke-width="1" />
<text x="1020.00" y="699" text-anchor="middle" fill="#0f172a" font-size="14" font-family="ui-sans-serif, system-ui, -apple-system, BlinkMacSystemFont, sans-serif">Harmonic</text>
<text x="565.00" y="732" text-anchor="middle" fill="#64748b" font-size="13" font-family="ui-sans-serif, system-ui, -apple-system, BlinkMacSystemFont, sans-serif">Lower is better</text>
<path d="M 110.00 419.76 L 413.33 391.71 L 716.67 439.81 L 1020.00 448.26" fill="none" stroke="#c2410c" stroke-width="4.0" stroke-linecap="round" stroke-linejoin="round" opacity="1.0" />
<circle cx="110.00" cy="419.76" r="5" fill="#c2410c" stroke="#ffffff" stroke-width="1.5" />
<circle cx="413.33" cy="391.71" r="5" fill="#c2410c" stroke="#ffffff" stroke-width="1.5" />
<circle cx="716.67" cy="439.81" r="5" fill="#c2410c" stroke="#ffffff" stroke-width="1.5" />
<circle cx="1020.00" cy="448.26" r="5" fill="#c2410c" stroke="#ffffff" stroke-width="1.5" />
<path d="M 110.00 432.66 L 413.33 469.11 L 716.67 551.48 L 1020.00 448.93" fill="none" stroke="#2563eb" stroke-width="2.2" stroke-linecap="round" stroke-linejoin="round" opacity="0.88" />
<circle cx="110.00" cy="432.66" r="3.5" fill="#2563eb" stroke="#ffffff" stroke-width="1.5" />
<circle cx="413.33" cy="469.11" r="3.5" fill="#2563eb" stroke="#ffffff" stroke-width="1.5" />
<circle cx="716.67" cy="551.48" r="3.5" fill="#2563eb" stroke="#ffffff" stroke-width="1.5" />
<circle cx="1020.00" cy="448.93" r="3.5" fill="#2563eb" stroke="#ffffff" stroke-width="1.5" />
<path d="M 110.00 435.51 L 413.33 465.02 L 716.67 549.38 L 1020.00 441.84" fill="none" stroke="#16a34a" stroke-width="2.2" stroke-linecap="round" stroke-linejoin="round" opacity="0.88" />
<circle cx="110.00" cy="435.51" r="3.5" fill="#16a34a" stroke="#ffffff" stroke-width="1.5" />
<circle cx="413.33" cy="465.02" r="3.5" fill="#16a34a" stroke="#ffffff" stroke-width="1.5" />
<circle cx="716.67" cy="549.38" r="3.5" fill="#16a34a" stroke="#ffffff" stroke-width="1.5" />
<circle cx="1020.00" cy="441.84" r="3.5" fill="#16a34a" stroke="#ffffff" stroke-width="1.5" />
<path d="M 110.00 415.93 L 413.33 443.34 L 716.67 526.19 L 1020.00 435.43" fill="none" stroke="#dc2626" stroke-width="2.2" stroke-linecap="round" stroke-linejoin="round" opacity="0.88" />
<circle cx="110.00" cy="415.93" r="3.5" fill="#dc2626" stroke="#ffffff" stroke-width="1.5" />
<circle cx="413.33" cy="443.34" r="3.5" fill="#dc2626" stroke="#ffffff" stroke-width="1.5" />
<circle cx="716.67" cy="526.19" r="3.5" fill="#dc2626" stroke="#ffffff" stroke-width="1.5" />
<circle cx="1020.00" cy="435.43" r="3.5" fill="#dc2626" stroke="#ffffff" stroke-width="1.5" />
<path d="M 110.00 405.56 L 413.33 450.39 L 716.67 519.18 L 1020.00 438.51" fill="none" stroke="#0891b2" stroke-width="2.2" stroke-linecap="round" stroke-linejoin="round" opacity="0.88" />
<circle cx="110.00" cy="405.56" r="3.5" fill="#0891b2" stroke="#ffffff" stroke-width="1.5" />
<circle cx="413.33" cy="450.39" r="3.5" fill="#0891b2" stroke="#ffffff" stroke-width="1.5" />
<circle cx="716.67" cy="519.18" r="3.5" fill="#0891b2" stroke="#ffffff" stroke-width="1.5" />
<circle cx="1020.00" cy="438.51" r="3.5" fill="#0891b2" stroke="#ffffff" stroke-width="1.5" />
<path d="M 110.00 401.95 L 413.33 463.72 L 716.67 543.82 L 1020.00 447.16" fill="none" stroke="#6d28d9" stroke-width="2.2" stroke-linecap="round" stroke-linejoin="round" opacity="0.88" />
<circle cx="110.00" cy="401.95" r="3.5" fill="#6d28d9" stroke="#ffffff" stroke-width="1.5" />
<circle cx="413.33" cy="463.72" r="3.5" fill="#6d28d9" stroke="#ffffff" stroke-width="1.5" />
<circle cx="716.67" cy="543.82" r="3.5" fill="#6d28d9" stroke="#ffffff" stroke-width="1.5" />
<circle cx="1020.00" cy="447.16" r="3.5" fill="#6d28d9" stroke="#ffffff" stroke-width="1.5" />
<path d="M 110.00 424.04 L 413.33 445.51 L 716.67 538.57 L 1020.00 435.97" fill="none" stroke="#ca8a04" stroke-width="2.2" stroke-linecap="round" stroke-linejoin="round" opacity="0.88" />
<circle cx="110.00" cy="424.04" r="3.5" fill="#ca8a04" stroke="#ffffff" stroke-width="1.5" />
<circle cx="413.33" cy="445.51" r="3.5" fill="#ca8a04" stroke="#ffffff" stroke-width="1.5" />
<circle cx="716.67" cy="538.57" r="3.5" fill="#ca8a04" stroke="#ffffff" stroke-width="1.5" />
<circle cx="1020.00" cy="435.97" r="3.5" fill="#ca8a04" stroke="#ffffff" stroke-width="1.5" />
<path d="M 110.00 260.12 L 413.33 261.02 L 716.67 265.00 L 1020.00 211.34" fill="none" stroke="#7c3aed" stroke-width="2.2" stroke-linecap="round" stroke-linejoin="round" opacity="0.88" />
<circle cx="110.00" cy="260.12" r="3.5" fill="#7c3aed" stroke="#ffffff" stroke-width="1.5" />
<circle cx="413.33" cy="261.02" r="3.5" fill="#7c3aed" stroke="#ffffff" stroke-width="1.5" />
<circle cx="716.67" cy="265.00" r="3.5" fill="#7c3aed" stroke="#ffffff" stroke-width="1.5" />
<circle cx="1020.00" cy="211.34" r="3.5" fill="#7c3aed" stroke="#ffffff" stroke-width="1.5" />
<path d="M 110.00 306.54 L 413.33 303.59 L 716.67 312.21 L 1020.00 314.60" fill="none" stroke="#15803d" stroke-width="2.2" stroke-linecap="round" stroke-linejoin="round" opacity="0.88" />
<circle cx="110.00" cy="306.54" r="3.5" fill="#15803d" stroke="#ffffff" stroke-width="1.5" />
<circle cx="413.33" cy="303.59" r="3.5" fill="#15803d" stroke="#ffffff" stroke-width="1.5" />
<circle cx="716.67" cy="312.21" r="3.5" fill="#15803d" stroke="#ffffff" stroke-width="1.5" />
<circle cx="1020.00" cy="314.60" r="3.5" fill="#15803d" stroke="#ffffff" stroke-width="1.5" />
<path d="M 110.00 378.69 L 413.33 404.18 L 716.67 417.40 L 1020.00 407.79" fill="none" stroke="#0f172a" stroke-width="2.2" stroke-linecap="round" stroke-linejoin="round" opacity="0.88" />
<circle cx="110.00" cy="378.69" r="3.5" fill="#0f172a" stroke="#ffffff" stroke-width="1.5" />
<circle cx="413.33" cy="404.18" r="3.5" fill="#0f172a" stroke="#ffffff" stroke-width="1.5" />
<circle cx="716.67" cy="417.40" r="3.5" fill="#0f172a" stroke="#ffffff" stroke-width="1.5" />
<circle cx="1020.00" cy="407.79" r="3.5" fill="#0f172a" stroke="#ffffff" stroke-width="1.5" />
<path d="M 110.00 122.40 L 413.33 203.69 L 716.67 247.78 L 1020.00 171.37" fill="none" stroke="#9333ea" stroke-width="2.2" stroke-linecap="round" stroke-linejoin="round" opacity="0.88" />
<circle cx="110.00" cy="122.40" r="3.5" fill="#9333ea" stroke="#ffffff" stroke-width="1.5" />
<circle cx="413.33" cy="203.69" r="3.5" fill="#9333ea" stroke="#ffffff" stroke-width="1.5" />
<circle cx="716.67" cy="247.78" r="3.5" fill="#9333ea" stroke="#ffffff" stroke-width="1.5" />
<circle cx="1020.00" cy="171.37" r="3.5" fill="#9333ea" stroke="#ffffff" stroke-width="1.5" />
<text x="1046" y="128" fill="#0f172a" font-size="16" font-weight="700" font-family="ui-sans-serif, system-ui, -apple-system, BlinkMacSystemFont, sans-serif">Languages</text>
<line x1="1046" y1="158" x2="1072" y2="158" stroke="#c2410c" stroke-width="4" stroke-linecap="round" />
<text x="1082" y="162" fill="#0f172a" font-size="14" font-weight="700" font-family="ui-sans-serif, system-ui, -apple-system, BlinkMacSystemFont, sans-serif">Pluto (baseline)</text>
<line x1="1046" y1="186" x2="1072" y2="186" stroke="#2563eb" stroke-width="4" stroke-linecap="round" />
<text x="1082" y="190" fill="#0f172a" font-size="14" font-weight="500" font-family="ui-sans-serif, system-ui, -apple-system, BlinkMacSystemFont, sans-serif">C</text>
<line x1="1046" y1="214" x2="1072" y2="214" stroke="#16a34a" stroke-width="4" stroke-linecap="round" />
<text x="1082" y="218" fill="#0f172a" font-size="14" font-weight="500" font-family="ui-sans-serif, system-ui, -apple-system, BlinkMacSystemFont, sans-serif">C++</text>
<line x1="1046" y1="242" x2="1072" y2="242" stroke="#dc2626" stroke-width="4" stroke-linecap="round" />
<text x="1082" y="246" fill="#0f172a" font-size="14" font-weight="500" font-family="ui-sans-serif, system-ui, -apple-system, BlinkMacSystemFont, sans-serif">Swift</text>
<line x1="1046" y1="270" x2="1072" y2="270" stroke="#0891b2" stroke-width="4" stroke-linecap="round" />
<text x="1082" y="274" fill="#0f172a" font-size="14" font-weight="500" font-family="ui-sans-serif, system-ui, -apple-system, BlinkMacSystemFont, sans-serif">Go</text>
<line x1="1046" y1="298" x2="1072" y2="298" stroke="#6d28d9" stroke-width="4" stroke-linecap="round" />
<text x="1082" y="302" fill="#0f172a" font-size="14" font-weight="500" font-family="ui-sans-serif, system-ui, -apple-system, BlinkMacSystemFont, sans-serif">Rust</text>
<line x1="1046" y1="326" x2="1072" y2="326" stroke="#ca8a04" stroke-width="4" stroke-linecap="round" />
<text x="1082" y="330" fill="#0f172a" font-size="14" font-weight="500" font-family="ui-sans-serif, system-ui, -apple-system, BlinkMacSystemFont, sans-serif">Zig</text>
<line x1="1046" y1="354" x2="1072" y2="354" stroke="#7c3aed" stroke-width="4" stroke-linecap="round" />
<text x="1082" y="358" fill="#0f172a" font-size="14" font-weight="500" font-family="ui-sans-serif, system-ui, -apple-system, BlinkMacSystemFont, sans-serif">Julia</text>
<line x1="1046" y1="382" x2="1072" y2="382" stroke="#15803d" stroke-width="4" stroke-linecap="round" />
<text x="1082" y="386" fill="#0f172a" font-size="14" font-weight="500" font-family="ui-sans-serif, system-ui, -apple-system, BlinkMacSystemFont, sans-serif">Node</text>
<line x1="1046" y1="410" x2="1072" y2="410" stroke="#0f172a" stroke-width="4" stroke-linecap="round" />
<text x="1082" y="414" fill="#0f172a" font-size="14" font-weight="500" font-family="ui-sans-serif, system-ui, -apple-system, BlinkMacSystemFont, sans-serif">Bun</text>
<line x1="1046" y1="438" x2="1072" y2="438" stroke="#9333ea" stroke-width="4" stroke-linecap="round" />
<text x="1082" y="442" fill="#0f172a" font-size="14" font-weight="500" font-family="ui-sans-serif, system-ui, -apple-system, BlinkMacSystemFont, sans-serif">Python</text>
</svg>
